<svg xmlns="http://www.w3.org/2000/svg" viewBox="0 0 1280 720" width="1280" height="720">
  <defs>
    <linearGradient id="card" x1="0" y1="0" x2="0" y2="1">
      <stop offset="0" stop-color="#162028"/>
      <stop offset="1" stop-color="#0F1418"/>
    </linearGradient>
  </defs>
  <rect width="1280" height="720" fill="#0E1418"/>

  <!-- Sidebar -->
  <rect x="0" y="0" width="220" height="720" fill="#101820"/>
  <rect x="24" y="28" width="120" height="14" rx="3" fill="#3A4750"/>
  <rect x="24" y="80"  width="170" height="34" rx="6" fill="#1B2730"/>
  <rect x="40" y="92"  width="110" height="10" rx="3" fill="#2C3A41"/>
  <rect x="40" y="132" width="120" height="10" rx="3" fill="#1F2A30"/>
  <rect x="40" y="162" width="100" height="10" rx="3" fill="#1F2A30"/>
  <rect x="40" y="192" width="130" height="10" rx="3" fill="#1F2A30"/>
  <rect x="40" y="222" width="90"  height="10" rx="3" fill="#1F2A30"/>

  <!-- Top bar -->
  <rect x="220" y="0" width="1060" height="64" fill="#0F1418"/>
  <rect x="252" y="22" width="190" height="20" rx="4" fill="#1B2730"/>
  <rect x="1130" y="22" width="120" height="20" rx="10" fill="#1B2730"/>

  <!-- Page header -->
  <text x="252" y="118" font-family="system-ui,-apple-system,sans-serif" font-size="28" font-weight="700" fill="#ECECEC">Overview</text>
  <text x="252" y="146" font-family="system-ui,-apple-system,sans-serif" font-size="14" fill="#7A8A92">Last 30 days</text>

  <!-- KPI row -->
  <rect x="252" y="180" width="320" height="120" rx="8" fill="url(#card)" stroke="#1E2A32"/>
  <text x="276" y="210" font-family="system-ui,-apple-system,sans-serif" font-size="13" fill="#7A8A92">Revenue</text>
  <text x="276" y="258" font-family="system-ui,-apple-system,sans-serif" font-size="34" font-weight="700" fill="#ECECEC">$284,920</text>
  <text x="276" y="282" font-family="system-ui,-apple-system,sans-serif" font-size="12" fill="#3DBE6D">▲ 12.4% vs last period</text>

  <rect x="592" y="180" width="320" height="120" rx="8" fill="url(#card)" stroke="#1E2A32"/>
  <text x="616" y="210" font-family="system-ui,-apple-system,sans-serif" font-size="13" fill="#7A8A92">Active users</text>
  <text x="616" y="258" font-family="system-ui,-apple-system,sans-serif" font-size="34" font-weight="700" fill="#ECECEC">1,420</text>
  <text x="616" y="282" font-family="system-ui,-apple-system,sans-serif" font-size="12" fill="#7A8A92">— same as last week</text>

  <rect x="932" y="180" width="320" height="120" rx="8" fill="url(#card)" stroke="#1E2A32"/>
  <text x="956" y="210" font-family="system-ui,-apple-system,sans-serif" font-size="13" fill="#7A8A92">Churn rate</text>
  <text x="956" y="258" font-family="system-ui,-apple-system,sans-serif" font-size="34" font-weight="700" fill="#475763">—</text>
  <text x="956" y="282" font-family="system-ui,-apple-system,sans-serif" font-size="12" fill="#7A8A92">No data yet</text>

  <!-- Chart -->
  <rect x="252" y="320" width="660" height="280" rx="8" fill="url(#card)" stroke="#1E2A32"/>
  <text x="276" y="352" font-family="system-ui,-apple-system,sans-serif" font-size="14" font-weight="600" fill="#ECECEC">Revenue trend</text>
  <text x="276" y="372" font-family="system-ui,-apple-system,sans-serif" font-size="11" fill="#7A8A92">Daily, last 30 days</text>
  <g transform="translate(276, 410)">
    <rect x="0"   y="120" width="20" height="50"  rx="2" fill="#243038"/>
    <rect x="32"  y="100" width="20" height="70"  rx="2" fill="#243038"/>
    <rect x="64"  y="80"  width="20" height="90"  rx="2" fill="#243038"/>
    <rect x="96"  y="110" width="20" height="60"  rx="2" fill="#243038"/>
    <rect x="128" y="60"  width="20" height="110" rx="2" fill="#243038"/>
    <rect x="160" y="40"  width="20" height="130" rx="2" fill="#243038"/>
    <rect x="192" y="70"  width="20" height="100" rx="2" fill="#243038"/>
    <rect x="224" y="50"  width="20" height="120" rx="2" fill="#243038"/>
    <rect x="256" y="30"  width="20" height="140" rx="2" fill="#243038"/>
    <rect x="288" y="20"  width="20" height="150" rx="2" fill="#243038"/>
    <rect x="320" y="10"  width="20" height="160" rx="2" fill="#3DBE6D"/>
    <rect x="352" y="40"  width="20" height="130" rx="2" fill="#243038"/>
    <rect x="384" y="60"  width="20" height="110" rx="2" fill="#243038"/>
    <rect x="416" y="30"  width="20" height="140" rx="2" fill="#243038"/>
    <rect x="448" y="0"   width="20" height="170" rx="2" fill="#3DBE6D"/>
    <rect x="480" y="40"  width="20" height="130" rx="2" fill="#243038"/>
    <rect x="512" y="80"  width="20" height="90"  rx="2" fill="#243038"/>
    <rect x="544" y="60"  width="20" height="110" rx="2" fill="#243038"/>
    <rect x="576" y="100" width="20" height="70"  rx="2" fill="#243038"/>
    <rect x="608" y="120" width="20" height="50"  rx="2" fill="#243038"/>
  </g>

  <!-- Side panel -->
  <rect x="932" y="320" width="320" height="280" rx="8" fill="url(#card)" stroke="#1E2A32"/>
  <text x="956" y="352" font-family="system-ui,-apple-system,sans-serif" font-size="14" font-weight="600" fill="#ECECEC">Top accounts</text>
  <text x="956" y="372" font-family="system-ui,-apple-system,sans-serif" font-size="11" fill="#7A8A92">By revenue this quarter</text>
  <g transform="translate(956, 396)">
    <rect x="0" y="0"   width="270" height="32" rx="4" fill="#1B2730"/>
    <rect x="0" y="40"  width="270" height="32" rx="4" fill="#1B2730"/>
    <rect x="0" y="80"  width="270" height="32" rx="4" fill="#1B2730"/>
    <rect x="0" y="120" width="270" height="32" rx="4" fill="#1B2730"/>
    <rect x="0" y="160" width="270" height="32" rx="4" fill="#1B2730"/>
  </g>

  <!-- Footer status bar -->
  <rect x="252" y="630" width="1000" height="60" rx="8" fill="#101820" stroke="#1E2A32"/>
  <text x="276" y="666" font-family="system-ui,-apple-system,sans-serif" font-size="13" fill="#7A8A92">Q2 2026 update — revenue is up 12% over Q1, with new enterprise contracts driving the bulk.</text>
</svg>